
<svg id="Layer_2" data-name="Layer 2" xmlns="http://www.w3.org/2000/svg" viewBox="0 0 348.17 575.4">
  <defs>
    <style>
      .cls-1 {
        fill: none;
        stroke: #000;
        stroke-miterlimit: 10;
      }
    </style>
  </defs>
  <g id="Layer_2-2" data-name="Layer 2">
    <path class="cls-1" d="M80.59.49c66.55,10.44,133.1,20.88,199.66,31.32,12.8,2.06,50.42,9.61,61.03,35.36,3.56,8.65,4.43,21.27,5.56,36.37,1.02,13.64.93,25,.65,32.84-83.31,12.97-166.63,25.93-249.94,38.9-3.59.64-44.27,8.62-60.91,46.48-11.28,25.66-4.64,49.42-2.53,56.08,82.05,13.47,164.09,26.94,246.14,40.42,5.15,1.01,41.89,8.78,52.95,37.89,1.5,3.94,2.76,8.89,3.03,14.88-78.81,29.06-157.62,58.12-236.44,87.17-6.19,1.62-50.93,14.12-69.54,57.59-9.81,22.9-7.9,43.99-6.24,54.21-7.97,1.63-15.94,3.27-23.91,4.9"/>
  </g>
</svg>