<svg width="55" height="56" viewBox="0 0 55 56" fill="none" xmlns="http://www.w3.org/2000/svg">
<g clip-path="url(#clip0_209_1161)">
<path d="M27.0114 16.4386L21.3438 8.64432V14.3127H23.6111V19.9114H13.1245V14.3127H15.2497V5.59873H13.1245V0H21.3621L27.0407 7.86461L32.7296 0H40.9665V5.59873H38.8413V14.3134H40.9665V19.9121H30.4813V14.3134H32.7479V8.64506L27.0114 16.4386Z" fill="white"/>
<path d="M21.4445 28.8929C20.612 28.8745 20.5761 28.695 20.5666 27.6258V24.9737C20.5666 23.385 20.5666 23.3762 21.4115 23.311V22.9578H18.4941V23.311C19.2944 23.4041 19.3032 23.5418 19.3032 24.8799V27.6581C19.3032 27.8728 19.2841 28.4759 19.2658 28.662C19.2284 29.0438 19.0518 29.1171 18.4941 29.1625V29.5158H23.6693L23.8166 27.8163H23.5022C23.3161 28.9669 22.6719 28.8929 21.4445 28.8929Z" fill="white"/>
<path d="M24.1992 23.311C24.9694 23.4224 24.9694 23.4605 24.9789 24.825V27.4815V28.3176C24.9694 29.005 24.8397 29.0805 24.1992 29.1618V29.515H26.9246V29.1618C26.4138 29.1252 26.2277 29.0336 26.1808 28.6334C26.1632 28.4378 26.1536 27.705 26.1536 27.4727V24.825C26.1536 23.4224 26.1536 23.3843 26.9246 23.311V22.9578H24.1992V23.311Z" fill="white"/>
<path d="M31.9045 23.311C32.9458 23.3476 32.9729 23.404 32.9832 24.4439V27.3803L31.154 25.113C30.1867 23.9148 30.0665 23.7375 29.5191 22.9578H27.5486V23.311C27.9861 23.3476 28.1326 23.4136 28.4961 23.7477C28.4859 24.4256 28.4587 28.3176 28.3657 28.7551C28.2909 29.1259 28.0872 29.1362 27.5479 29.1625V29.5158H30.2248V29.1625C29.2201 29.0607 29.1454 29.0248 29.1454 27.9651V24.5641L31.7374 27.7599C32.0342 28.1227 32.3317 28.4942 32.6292 28.8665L33.2155 29.5993H33.6053L33.6977 24.537C33.7072 23.4685 33.7717 23.3198 34.4884 23.311V22.9578H31.9045V23.311Z" fill="white"/>
<path d="M13.1257 22.957V23.3102C13.5984 23.3564 13.8021 23.3843 13.8673 23.692C13.9128 23.8943 13.923 24.6249 13.923 24.8858L13.9216 27.1883C13.9216 27.3657 13.9128 28.1512 13.9033 28.311C13.8842 29.0255 13.8021 29.0907 13.1235 29.1523V29.5158H15.8394V29.1523C15.1622 29.0907 15.0772 29.0248 15.0589 28.311L15.0633 26.4409H15.7888C16.5216 26.4409 16.9129 26.5112 16.9598 27.2455H17.275V25.0793H16.9598C16.9225 25.7879 16.7268 25.8568 15.928 25.8568H15.0633L15.0648 23.5807C15.2978 23.5521 15.4268 23.5418 15.8452 23.5418C17.1269 23.5418 17.541 23.5382 17.7124 24.5648H18.0363L17.9345 22.957H13.1257Z" fill="white"/>
<path d="M40.9122 22.957H34.9478L34.8921 24.7964H35.2358C35.2907 23.6254 35.7832 23.6539 36.5277 23.6539H37.3441V28.4861C37.3441 29.0064 37.177 29.23 36.5732 29.238V29.5165H39.2861V29.238C38.6822 29.2292 38.5144 29.0064 38.5144 28.4861V23.6539H39.333C40.0753 23.6539 40.567 23.6254 40.6227 24.7964H40.9664L40.9122 22.957Z" fill="white"/>
<path d="M9.1049 40.0959C7.04297 40.0959 7.04297 38.5722 7.04297 37.0071C7.04297 35.4255 7.04297 33.9184 9.1049 33.9184C10.3802 33.9184 10.8936 34.6222 10.8439 35.9058H9.61831C9.61831 35.1108 9.47754 34.8127 9.1049 34.8127C8.40103 34.8127 8.30994 35.4752 8.30994 37.0071C8.30994 38.5391 8.40103 39.2016 9.1049 39.2016C9.68456 39.2016 9.65972 38.4563 9.67628 37.9843H10.9101C10.9101 39.5825 10.2725 40.0959 9.1049 40.0959Z" fill="white"/>
<path d="M13.7089 39.2016C14.4128 39.2016 14.5039 38.5391 14.5039 37.0071C14.5039 35.4752 14.4128 34.8127 13.7089 34.8127C13.005 34.8127 12.9139 35.4752 12.9139 37.0071C12.9139 38.5391 13.005 39.2016 13.7089 39.2016ZM13.7089 40.0959C11.647 40.0959 11.647 38.5722 11.647 37.0071C11.647 35.4255 11.647 33.9184 13.7089 33.9184C15.7708 33.9184 15.7708 35.4255 15.7708 37.0071C15.7708 38.5722 15.7708 40.0959 13.7089 40.0959Z" fill="white"/>
<path d="M19.8948 39.9965H16.7729V34.0177H18.0234V39.0028H19.8948V39.9965Z" fill="white"/>
<path d="M23.5716 39.9965H20.4497V34.0177H21.7001V39.0028H23.5716V39.9965Z" fill="white"/>
<path d="M27.4471 39.9965H24.1182V34.0177H27.3808V34.9369H25.3686V36.4109H27.2235V37.33H25.3686V39.0773H27.4471V39.9965Z" fill="white"/>
<path d="M32.2335 35.8561H30.9913C30.9996 35.3013 30.9085 34.8127 30.2461 34.8127C29.4677 34.8127 29.4677 35.8644 29.4677 37.0237C29.4677 38.8952 29.6498 39.2264 30.362 39.2264C30.569 39.2264 30.7926 39.1767 30.983 39.1105V37.7855H30.304V36.8664H32.2335V39.8971C31.8939 39.9634 31.041 40.0959 30.5442 40.0959C28.4408 40.0959 28.2007 39.2264 28.2007 36.9574C28.2007 35.4503 28.2752 33.9184 30.3206 33.9184C31.5461 33.9184 32.308 34.6057 32.2335 35.8561Z" fill="white"/>
<path d="M36.6473 39.9965H33.3184V34.0177H36.581V34.9369H34.5688V36.4109H36.4237V37.33H34.5688V39.0773H36.6473V39.9965Z" fill="white"/>
<path d="M41.3007 39.2016C42.0046 39.2016 42.0957 38.5391 42.0957 37.0071C42.0957 35.4752 42.0046 34.8127 41.3007 34.8127C40.5968 34.8127 40.5057 35.4752 40.5057 37.0071C40.5057 38.5391 40.5968 39.2016 41.3007 39.2016ZM41.3007 40.0959C39.2388 40.0959 39.2388 38.5722 39.2388 37.0071C39.2388 35.4255 39.2388 33.9184 41.3007 33.9184C43.3626 33.9184 43.3626 35.4255 43.3626 37.0071C43.3626 38.5722 43.3626 40.0959 41.3007 40.0959Z" fill="white"/>
<path d="M45.582 39.9965H44.3315V34.0177H47.4369V34.9369H45.582V36.4688H47.3541V37.388H45.582V39.9965Z" fill="white"/>
<path d="M6.67033 47.5573H5.41992V41.5785H6.67033V47.5573Z" fill="white"/>
<path d="M8.89807 47.5573H7.73047V41.5785H9.41976L11.0097 45.7189H11.0262V41.5785H12.1938V47.5573H10.546L8.91463 43.185H8.89807V47.5573Z" fill="white"/>
<path d="M14.421 47.5573H13.2534V41.5785H14.9427L16.5326 45.7189H16.5492V41.5785H17.7168V47.5573H16.0689L14.4376 43.185H14.421V47.5573Z" fill="white"/>
<path d="M20.7729 46.7623C21.4767 46.7623 21.5678 46.0998 21.5678 44.5679C21.5678 43.0359 21.4767 42.3734 20.7729 42.3734C20.069 42.3734 19.9779 43.0359 19.9779 44.5679C19.9779 46.0998 20.069 46.7623 20.7729 46.7623ZM20.7729 47.6566C18.7109 47.6566 18.7109 46.1329 18.7109 44.5679C18.7109 42.9862 18.7109 41.4791 20.7729 41.4791C22.8348 41.4791 22.8348 42.9862 22.8348 44.5679C22.8348 46.1329 22.8348 47.6566 20.7729 47.6566Z" fill="white"/>
<path d="M24.8216 47.5573L23.3477 41.5785H24.6477L25.5752 45.9259H25.5918L26.6352 41.5785H27.869L26.2874 47.5573H24.8216Z" fill="white"/>
<path d="M28.9043 47.5573H27.6704L29.3266 41.5785H30.9745L32.5975 47.5573H31.2809L30.9496 46.2323H29.2438L28.9043 47.5573ZM30.6846 45.3131L30.0801 42.7295H30.0636L29.4922 45.3131H30.6846Z" fill="white"/>
<path d="M32.2168 41.5785H36.2496V42.5722H34.8584V47.5573H33.608V42.5722H32.2168V41.5785Z" fill="white"/>
<path d="M38.0795 47.5573H36.8291V41.5785H38.0795V47.5573Z" fill="white"/>
<path d="M41.1352 46.7623C41.839 46.7623 41.9301 46.0998 41.9301 44.5679C41.9301 43.0359 41.839 42.3734 41.1352 42.3734C40.4313 42.3734 40.3402 43.0359 40.3402 44.5679C40.3402 46.0998 40.4313 46.7623 41.1352 46.7623ZM41.1352 47.6566C39.0732 47.6566 39.0732 46.1329 39.0732 44.5679C39.0732 42.9862 39.0732 41.4791 41.1352 41.4791C43.1971 41.4791 43.1971 42.9862 43.1971 44.5679C43.1971 46.1329 43.1971 47.6566 41.1352 47.6566Z" fill="white"/>
<path d="M45.3668 47.5573H44.1992V41.5785H45.8885L47.4784 45.7189H47.495V41.5785H48.6626V47.5573H47.0147L45.3834 43.185H45.3668V47.5573Z" fill="white"/>
<path d="M4.16527 55.118L3.80091 54.646C3.3289 55.1098 2.77408 55.2174 2.13646 55.2174C0.761838 55.2174 0 54.5715 0 53.4039C0 52.6089 0.554817 52.1038 1.17588 51.698C0.861208 51.2923 0.513412 50.8203 0.513412 50.1992C0.513412 49.5367 1.30009 49.0399 2.31864 49.0399C2.89002 49.0399 3.83403 49.3049 3.83403 50.2075C3.83403 50.9859 3.29578 51.3834 2.81549 51.814L3.75122 53.0395C3.85887 52.6503 3.88372 52.4268 3.88372 51.8471H4.89398C4.89398 52.4682 4.89398 53.2466 4.48822 53.8925L5.39083 55.118H4.16527ZM3.07219 53.9256L1.85491 52.435C1.5568 52.6669 1.25041 53.0064 1.25041 53.4039C1.25041 53.9753 1.58992 54.3231 2.1613 54.3231C2.51738 54.3231 2.85689 54.2071 3.07219 53.9256ZM2.09505 51.1184C2.38488 50.9362 2.69128 50.6712 2.69128 50.2986C2.69128 49.9839 2.50082 49.7852 2.17786 49.7852C1.91288 49.7852 1.65617 49.9756 1.65617 50.2572C1.65617 50.5967 1.87975 50.87 2.09505 51.1184Z" fill="white"/>
<path d="M7.31201 49.1393H11.3448V50.133H9.9536V55.118H8.70319V50.133H7.31201V49.1393Z" fill="white"/>
<path d="M15.2532 55.118H11.9243V49.1393H15.187V50.0584H13.1747V51.5324H15.0296V52.4516H13.1747V54.1989H15.2532V55.118Z" fill="white"/>
<path d="M18.0688 55.2174C16.0068 55.2174 16.0068 53.6937 16.0068 52.1287C16.0068 50.547 16.0068 49.0399 18.0688 49.0399C19.344 49.0399 19.8574 49.7438 19.8077 51.0273H18.5822C18.5822 50.2323 18.4414 49.9342 18.0688 49.9342C17.3649 49.9342 17.2738 50.5967 17.2738 52.1287C17.2738 53.6606 17.3649 54.3231 18.0688 54.3231C18.6484 54.3231 18.6236 53.5778 18.6401 53.1058H19.874C19.874 54.704 19.2364 55.2174 18.0688 55.2174Z" fill="white"/>
<path d="M21.9609 51.5324H23.3934V49.1393H24.6439V55.118H23.3934V52.4516H21.9609V55.118H20.7104V49.1393H21.9609V51.5324Z" fill="white"/>
<path d="M26.9044 55.118H25.7368V49.1393H27.4261L29.016 53.2797H29.0326V49.1393H30.2002V55.118H28.5523L26.921 50.7458H26.9044V55.118Z" fill="white"/>
<path d="M33.2558 54.3231C33.9597 54.3231 34.0507 53.6606 34.0507 52.1287C34.0507 50.5967 33.9597 49.9342 33.2558 49.9342C32.5519 49.9342 32.4608 50.5967 32.4608 52.1287C32.4608 53.6606 32.5519 54.3231 33.2558 54.3231ZM33.2558 55.2174C31.1938 55.2174 31.1938 53.6937 31.1938 52.1287C31.1938 50.547 31.1938 49.0399 33.2558 49.0399C35.3177 49.0399 35.3177 50.547 35.3177 52.1287C35.3177 53.6937 35.3177 55.2174 33.2558 55.2174Z" fill="white"/>
<path d="M39.4417 55.118H36.3198V49.1393H37.5702V54.1243H39.4417V55.118Z" fill="white"/>
<path d="M41.9921 54.3231C42.696 54.3231 42.7871 53.6606 42.7871 52.1287C42.7871 50.5967 42.696 49.9342 41.9921 49.9342C41.2882 49.9342 41.1971 50.5967 41.1971 52.1287C41.1971 53.6606 41.2882 54.3231 41.9921 54.3231ZM41.9921 55.2174C39.9302 55.2174 39.9302 53.6937 39.9302 52.1287C39.9302 50.547 39.9302 49.0399 41.9921 49.0399C44.054 49.0399 44.054 50.547 44.054 52.1287C44.054 53.6937 44.054 55.2174 41.9921 55.2174Z" fill="white"/>
<path d="M49.0225 50.9776H47.7804C47.7887 50.4228 47.6976 49.9342 47.0351 49.9342C46.2567 49.9342 46.2567 50.9859 46.2567 52.1452C46.2567 54.0167 46.4389 54.3479 47.151 54.3479C47.3581 54.3479 47.5817 54.2982 47.7721 54.232V52.9071H47.0931V51.9879H49.0225V55.0187C48.683 55.0849 47.8301 55.2174 47.3332 55.2174C45.2299 55.2174 44.9897 54.3479 44.9897 52.079C44.9897 50.5719 45.0643 49.0399 47.1096 49.0399C48.3352 49.0399 49.097 49.7272 49.0225 50.9776Z" fill="white"/>
<path d="M51.2086 55.118V53.0478L49.6436 49.1393H51.0099L51.9042 51.6649L52.8565 49.1393H54.1318L52.459 53.0478V55.118H51.2086Z" fill="white"/>
</g>
<defs>
<clipPath id="clip0_209_1161">
<rect width="54.1319" height="55.2174" fill="white"/>
</clipPath>
</defs>
</svg>
